<svg width="32" height="32" xmlns="http://www.w3.org/2000/svg">

 <g>
  <title>background</title>
  <rect fill="none" id="canvas_background" height="402" width="582" y="-1" x="-1"/>
 </g>
 <g>
  <title>Layer 1</title>
  <path id="svg_1" d="m256,298.3l0,0l0,0l174.2,-167.2c4.3,-4.2 11.4,-4.1 15.8,0.2l30.6,29.9c4.4,4.3 4.5,11.3 0.2,15.5l-212.7,204.2c-2.2,2.2 -5.2,3.2 -8.1,3c-3,0.1 -5.9,-0.9 -8.1,-3l-212.7,-204.2c-4.3,-4.2 -4.2,-11.2 0.2,-15.5l30.6,-29.9c4.4,-4.3 11.5,-4.4 15.8,-0.2l174.2,167.2z"/>
 </g>
</svg>